<svg width="227" height="34" viewBox="0 0 227 34" fill="none" xmlns="http://www.w3.org/2000/svg">
<path d="M11.5874 8.17792C11.8793 7.66332 11.6125 7.037 11.0218 6.79611C8.02711 5.64682 4.95488 4.86479 1.84564 4.1512C1.0706 3.97315 0.364683 4.65253 0.517596 5.43316C0.518993 5.44084 0.520389 5.44922 0.522484 5.4569C0.606272 5.88282 0.929555 6.22216 1.35199 6.32131C4.25455 7.00279 7.13966 7.71639 9.95843 8.71975C10.554 8.94458 11.2872 8.70718 11.5874 8.17792Z" fill="#FF5857"/>
<path d="M14.0167 4.43728C13.6864 4.95817 12.9113 5.14599 12.285 4.866C9.17928 3.5617 4.32655 2.27764 0.542814 1.39926C0.232099 1.32734 0.00936254 1.05433 0.000983723 0.73594L0.000285871 0.721975C-0.0108859 0.326076 0.306811 0 0.70271 0H3.39859C3.97813 0 4.55627 0.0705217 5.11835 0.212962C7.96365 0.936333 10.728 1.8203 13.4539 3.03034C14.069 3.30894 14.3343 3.93595 14.0167 4.43728Z" fill="#FF5857"/>
<path d="M31.9648 20.4521C27.7565 23.5586 23.8785 27.0658 20.3308 30.9103C20.1444 31.1128 20.041 31.3781 20.041 31.6532C20.041 32.2586 20.5319 32.7495 21.1372 32.7495H39.7494C39.7494 30.2023 38.834 27.7375 37.1603 25.8174C35.303 23.6864 33.5826 21.9331 31.9648 20.4521Z" fill="#FF5857"/>
<path d="M29.1405 18.0445C25.9635 15.5323 23.1587 13.9536 20.4153 12.3218C19.5789 11.7967 18.6174 11.4728 17.6294 11.3624C16.6588 11.2542 15.6583 11.3506 14.7268 11.662C14.0977 11.8721 13.4281 11.9587 12.7759 11.9238C12.1224 11.8889 11.4709 11.7374 10.8816 11.4881C8.26465 10.4464 5.57226 9.70483 2.85752 9.02544C2.20258 8.86136 1.63631 9.50513 1.87999 10.1349C4.2896 16.3471 8.84838 21.4868 14.6437 24.6429C16.8627 25.8515 19.5949 25.5617 21.5081 23.9111C23.9393 21.8143 26.4837 19.8537 29.1405 18.0445Z" fill="#FF5857"/>
<path d="M11.8276 0C13.5544 0.667513 15.263 1.41462 16.9792 2.24273C18.1432 2.80551 19.1018 3.86822 19.2967 5.14669C19.5529 6.82664 20.7636 8.33693 22.142 9.27885C22.2313 9.33959 22.3256 9.40034 22.4185 9.4562C22.4673 9.48622 22.4925 9.50088 22.5414 9.53091C25.1311 11.0803 28.484 13.0374 32.2552 16.0224C33.6552 15.1587 35.0837 14.3355 36.5424 13.5555C37.5876 13.0333 38.4004 12.0432 38.8605 10.9986C39.949 8.52754 42.3663 6.53408 44.8779 5.70458C47.6115 4.80106 52.8427 4.59159 53.6735 8.31039C54.436 11.7248 50.3409 14.5428 47.6457 15.6502C45.5363 16.5168 42.8034 17.2736 40.5635 16.352C39.5133 15.9198 38.5658 16.2004 37.5848 16.6648C36.7099 17.2003 35.8476 17.7533 34.9979 18.321C36.0864 19.2873 37.2001 20.3424 38.3326 21.5001C41.1402 24.3698 45.6411 24.698 48.825 22.2528C49.7976 21.5056 50.72 20.6964 51.5858 19.8306C56.6627 14.7537 59.8006 7.74622 59.8006 0H11.8276Z" fill="#FF5857"/>
<path d="M71.8512 32.6892H63.8008L69.4927 4.22949H91.773L90.5131 10.4506H76.282L71.8512 32.6892ZM74.4527 16.7107H87.5853L86.3254 22.9318H73.2332L74.4527 16.7107Z" fill="#383838"/>
<path d="M100.474 33.0544C98.1433 33.0544 96.1099 32.6345 94.3756 31.7946C92.6412 30.9547 91.2995 29.782 90.3504 28.2777C89.4013 26.7735 88.9268 25.0183 88.9268 23.0122C88.9268 20.5732 89.5092 18.3981 90.6754 16.4869C91.8403 14.5757 93.4408 13.065 95.4729 11.9534C97.5063 10.8418 99.8361 10.2866 102.466 10.2866C104.825 10.2866 106.863 10.7001 108.585 11.5269C110.306 12.3538 111.64 13.5122 112.589 15.0035C113.537 16.4947 114.013 18.2564 114.013 20.2885C114.013 22.7275 113.429 24.9104 112.264 26.8346C111.098 28.7601 109.499 30.2773 107.467 31.3876C105.434 32.4992 103.103 33.0544 100.474 33.0544ZM100.922 26.9152C101.951 26.9152 102.859 26.6513 103.645 26.1221C104.431 25.593 105.048 24.8688 105.496 23.947C105.943 23.0252 106.166 21.9409 106.166 20.6941C106.166 19.4746 105.806 18.4579 105.089 17.6453C104.37 16.8327 103.346 16.4258 102.019 16.4258C100.988 16.4258 100.081 16.6832 99.2953 17.1981C98.5087 17.7129 97.8924 18.4384 97.4452 19.3732C96.9979 20.308 96.7743 21.4001 96.7743 22.6456C96.7743 23.947 97.1396 24.9832 97.8716 25.7555C98.6036 26.5291 99.6203 26.9152 100.922 26.9152Z" fill="#383838"/>
<path d="M126.698 33.0544C124.367 33.0544 122.334 32.6345 120.599 31.7946C118.865 30.9547 117.523 29.782 116.574 28.2777C115.625 26.7735 115.15 25.0183 115.15 23.0122C115.15 20.5732 115.733 18.3981 116.899 16.4869C118.064 14.5757 119.664 13.065 121.697 11.9534C123.73 10.8418 126.06 10.2866 128.69 10.2866C131.048 10.2866 133.087 10.7001 134.808 11.5269C136.53 12.3538 137.864 13.5122 138.813 15.0035C139.76 16.4947 140.236 18.2564 140.236 20.2885C140.236 22.7275 139.653 24.9104 138.488 26.8346C137.321 28.7601 135.722 30.2773 133.69 31.3876C131.658 32.4992 129.327 33.0544 126.698 33.0544ZM127.145 26.9152C128.175 26.9152 129.083 26.6513 129.869 26.1221C130.654 25.593 131.272 24.8688 131.719 23.947C132.166 23.0252 132.39 21.9409 132.39 20.6941C132.39 19.4746 132.03 18.4579 131.312 17.6453C130.593 16.8327 129.57 16.4258 128.243 16.4258C127.212 16.4258 126.304 16.6832 125.519 17.1981C124.732 17.7129 124.116 18.4384 123.669 19.3732C123.222 20.308 122.998 21.4001 122.998 22.6456C122.998 23.947 123.363 24.9832 124.095 25.7555C124.827 26.5291 125.844 26.9152 127.145 26.9152Z" fill="#383838"/>
<path d="M150.848 33.0543C149.276 33.0543 147.778 32.6616 146.354 31.875C144.932 31.0898 143.772 29.9509 142.878 28.4596C141.983 26.9697 141.536 25.1534 141.536 23.0121C141.536 21.1698 141.847 19.4745 142.471 17.9299C143.094 16.3854 143.954 15.0436 145.053 13.9047C146.15 12.7658 147.424 11.8791 148.875 11.2421C150.325 10.605 151.877 10.2865 153.531 10.2865C155.13 10.2865 156.533 10.5582 157.74 11.0991C158.945 11.6412 159.887 12.5162 160.565 13.7214C161.242 14.9279 161.581 16.5063 161.581 18.4578C161.581 20.4092 161.351 22.2593 160.89 24.008C160.428 25.7567 159.744 27.3077 158.837 28.6637C157.928 30.0198 156.803 31.0898 155.462 31.8763C154.121 32.6616 152.582 33.0543 150.848 33.0543ZM153.531 26.8345C154.588 26.8345 155.503 26.577 156.276 26.0622C157.048 25.5473 157.658 24.8297 158.105 23.9079C158.552 22.9874 158.776 21.9161 158.776 20.6953C158.776 19.4212 158.41 18.3979 157.678 17.6257C156.947 16.8534 155.93 16.4673 154.63 16.4673C153.626 16.4673 152.725 16.7312 151.925 17.2603C151.126 17.7895 150.503 18.515 150.056 19.4355C149.609 20.3572 149.385 21.4272 149.385 22.6481C149.385 23.9222 149.75 24.9389 150.482 25.6968C151.214 26.4548 152.231 26.8345 153.531 26.8345ZM156.784 32.6889L157.556 28.9888L158.98 21.7107L159.997 14.4326L162.395 2.51953H170.121L164.104 32.6876H156.784V32.6889Z" fill="#383838"/>
<path d="M168.25 32.689L172.641 10.6519H180.324L175.934 32.689H168.25ZM177.56 8.21289C176.204 8.21289 175.128 7.84105 174.328 7.09478C173.529 6.34981 173.128 5.44752 173.128 4.39052C173.128 3.1437 173.582 2.0997 174.491 1.25982C175.398 0.41994 176.598 0 178.089 0C179.444 0 180.528 0.352334 181.342 1.057C182.155 1.76167 182.562 2.64316 182.562 3.70016C182.562 5.02888 182.1 6.11319 181.18 6.95307C180.257 7.79295 179.05 8.21289 177.56 8.21289Z" fill="#383838"/>
<path d="M192.563 33.0544C190.204 33.0544 188.151 32.641 186.403 31.8141C184.654 30.9872 183.293 29.8223 182.316 28.318C181.341 26.8138 180.853 25.0456 180.853 23.0122C180.853 20.5732 181.408 18.3981 182.519 16.4869C183.631 14.5757 185.188 13.065 187.195 11.9534C189.201 10.8418 191.53 10.2866 194.188 10.2866C196.437 10.2866 198.369 10.6936 199.981 11.5061C201.593 12.3187 202.84 13.4511 203.722 14.9008C204.602 16.3517 205.043 18.038 205.043 19.9621C205.043 20.6122 205.002 21.2363 204.92 21.833C204.84 22.4298 204.731 23.0122 204.595 23.5817H186.912L187.644 19.5162H201.02L197.807 20.6954C198.025 19.6384 197.991 18.7504 197.706 18.0328C197.421 17.3151 196.947 16.7586 196.282 16.366C195.618 15.9734 194.799 15.777 193.823 15.777C192.576 15.777 191.553 16.0891 190.753 16.7118C189.953 17.3359 189.357 18.1823 188.964 19.2523C188.571 20.3236 188.375 21.482 188.375 22.7288C188.375 24.2474 188.795 25.3655 189.635 26.0831C190.475 26.8021 191.735 27.1609 193.416 27.1609C194.391 27.1609 195.346 27.0049 196.282 26.6929C197.217 26.3822 198.038 25.9401 198.742 25.372L201.955 30.2097C200.573 31.2407 199.074 31.9714 197.462 32.4056C195.849 32.8373 194.217 33.0544 192.563 33.0544Z" fill="#383838"/>
<path d="M213.868 33.0544C211.917 33.0544 210.073 32.8438 208.339 32.4238C206.604 32.0039 205.263 31.4955 204.313 30.8988L207.119 25.4916C208.149 26.1416 209.355 26.6435 210.737 26.9958C212.119 27.3481 213.461 27.525 214.763 27.525C216.037 27.525 216.944 27.3833 217.486 27.0985C218.028 26.8138 218.299 26.4277 218.299 25.9401C218.299 25.5072 218.021 25.1873 217.466 24.9845C216.909 24.7817 216.198 24.6127 215.331 24.4762C214.464 24.341 213.548 24.1654 212.586 23.947C211.624 23.7299 210.709 23.4179 209.842 23.0122C208.974 22.6053 208.262 22.0306 207.707 21.2844C207.15 20.5394 206.873 19.5435 206.873 18.2967C206.873 16.535 207.388 15.0581 208.418 13.8646C209.448 12.6723 210.85 11.7779 212.626 11.1811C214.401 10.5856 216.401 10.2866 218.624 10.2866C220.196 10.2866 221.714 10.4361 223.178 10.7339C224.642 11.0329 225.915 11.4658 227.001 12.0353L224.277 17.4425C223.193 16.7924 222.081 16.3517 220.943 16.1216C219.804 15.8914 218.734 15.7757 217.731 15.7757C216.457 15.7757 215.549 15.9383 215.007 16.2633C214.465 16.5883 214.194 16.9823 214.194 17.4425C214.194 17.8494 214.471 18.168 215.028 18.3981C215.583 18.6282 216.288 18.818 217.142 18.9675C217.996 19.1171 218.91 19.2926 219.886 19.4967C220.863 19.6995 221.777 20.005 222.631 20.412C223.485 20.8189 224.19 21.3884 224.745 22.119C225.3 22.851 225.578 23.8404 225.578 25.0872C225.578 26.8216 225.056 28.2855 224.013 29.4778C222.969 30.6713 221.566 31.5658 219.804 32.1612C218.041 32.7567 216.063 33.0544 213.868 33.0544Z" fill="#383838"/>
</svg>
